<?xml version="1.0" encoding="utf-8"?>
<!-- Generator: Adobe Illustrator 23.0.1, SVG Export Plug-In . SVG Version: 6.00 Build 0)  -->
<svg version="1.1" id="Calque_1" xmlns="http://www.w3.org/2000/svg" xmlns:xlink="http://www.w3.org/1999/xlink" x="0px" y="0px"
	 viewBox="0 0 1080 1080" style="enable-background:new 0 0 1080 1080;" xml:space="preserve">
<style type="text/css">
	.st0{fill:#333232;}
	.st1{fill:#CC1114;}
	.st2{fill:#A51822;}
	.st3{fill:#540B0F;}
	.st4{fill:#B2750E;}
	.st5{fill:none;}
</style>
<g>
	<g>
		<polygon class="st0" points="535.76,608.56 535.76,955.08 491.61,540 		"/>
		<polygon points="588.39,540 544.24,955.08 544.24,608.56 		"/>
		<path class="st1" d="M522.04,540c0,9.92,8.04,17.96,17.96,17.96v43.03l-4.24,7.57L491.61,540L540,70.82v451.22
			C530.08,522.04,522.04,530.08,522.04,540z"/>
		<path class="st2" d="M588.39,540l-44.15,68.56l-4.24-7.57v-43.03c9.92,0,17.96-8.04,17.96-17.96c0-9.92-8.04-17.96-17.96-17.96
			V70.82L588.39,540z"/>
		<polygon class="st3" points="544.24,608.56 535.76,608.56 540,580.99 		"/>
		
			<ellipse transform="matrix(0.9239 -0.3827 0.3827 0.9239 -165.5441 247.7543)" class="st4" cx="540" cy="540" rx="17.96" ry="17.96"/>
	</g>
	<line class="st5" x1="540" y1="522.04" x2="540" y2="557.96"/>
	<line class="st5" x1="522.04" y1="540" x2="557.96" y2="540"/>
	<rect x="491.61" y="70.82" class="st5" width="96.77" height="469.18"/>
	<rect x="491.61" y="540" class="st5" width="96.77" height="469.18"/>
</g>
</svg>
