<?xml version="1.0" encoding="utf-8"?>
<!-- Generator: Adobe Illustrator 23.0.1, SVG Export Plug-In . SVG Version: 6.00 Build 0)  -->
<svg version="1.1" id="Calque_1" xmlns="http://www.w3.org/2000/svg" xmlns:xlink="http://www.w3.org/1999/xlink" x="0px" y="0px"
	 viewBox="0 0 1080 1080" style="enable-background:new 0 0 1080 1080;" xml:space="preserve">
<style type="text/css">
	.st0{fill:none;}
	.st1{fill:#960F08;}
	.st2{font-family:'AvantGardeLT-Bold';}
	.st3{font-size:137.8019px;}
</style>
<g id="repere">
	<rect x="466.7" y="105.6" class="st0" width="146.6" height="134"/>
	<text transform="matrix(1 0 0 1 487.7446 207.542)" class="st1 st2 st3">N</text>
	<rect x="105.6" y="466.7" class="st0" width="134" height="146.6"/>
	<text transform="matrix(0 -1 1 0 207.582 607.5908)" class="st1 st2 st3">W</text>
	<rect x="466.7" y="840.5" class="st0" width="146.6" height="134"/>
	<text transform="matrix(-1 0 0 -1 579.5195 872.459)" class="st1 st2 st3">S</text>
	<rect x="840.5" y="466.7" class="st0" width="134" height="146.6"/>
	<text transform="matrix(0 1 -1 0 872.5 503.6201)" class="st1 st2 st3">E</text>
	<path class="st1" d="M895.6,194.1c-3.2-3.3-6.4-6.6-9.7-9.7C796.5,97.5,674.5,44,540,44c-134.5,0-256.5,53.5-345.9,140.5
		c-3.3,3.2-6.6,6.4-9.7,9.7C97.5,283.5,44,405.5,44,540c0,134.5,53.5,256.5,140.5,345.9c3.2,3.3,6.4,6.5,9.7,9.7
		C283.6,982.5,405.5,1036,540,1036s256.5-53.5,345.8-140.5c3.3-3.2,6.5-6.4,9.7-9.7c86.9-89.3,140.5-211.4,140.5-345.9
		S982.6,283.5,895.6,194.1z M878.8,869.1l-14.3-14.3l-9.9-9.9c-3.2,3.3-6.4,6.5-9.7,9.7l24.2,24.2
		c-76.9,74.7-179.2,123.5-292.8,132.1L540,985.2l-36.3,25.7c-113.5-8.6-215.8-57.4-292.8-132.1l24.1-24.1c-3.3-3.2-6.5-6.4-9.7-9.7
		l-24.1,24.1C126.5,792.2,77.7,689.8,69.1,576.3L94.8,540l-25.7-36.3c8.6-113.5,57.4-215.8,132.1-292.8l14.2,14.2l9.9,9.9
		c3.2-3.3,6.4-6.5,9.7-9.7l-24.1-24.1C287.9,126.4,390.2,77.7,503.7,69h0L540,94.7L576.3,69h0c113.5,8.6,215.8,57.4,292.8,132.1
		l-14.3,14.3l-9.9,9.9c3.3,3.2,6.5,6.4,9.7,9.7l24.1-24.1c74.8,76.9,123.5,179.3,132.2,292.8L985.3,540l25.7,36.3
		C1002.4,689.8,953.6,792.2,878.8,869.1z"/>
</g>
</svg>
