<?xml version="1.0" encoding="utf-8"?>
<!-- Generator: Adobe Illustrator 23.0.1, SVG Export Plug-In . SVG Version: 6.00 Build 0)  -->
<svg version="1.1" id="Calque_1" xmlns="http://www.w3.org/2000/svg" xmlns:xlink="http://www.w3.org/1999/xlink" x="0px" y="0px"
	 viewBox="0 0 1080 1080" style="enable-background:new 0 0 1080 1080;" xml:space="preserve">
<style type="text/css">
	.st0{fill:#F4F4F4;}
	.st1{fill:#FFFFFF;}
	.st2{fill:#CECECE;}
	.st3{fill:none;}
	.st4{font-family:'MyriadPro-Regular';}
	.st5{font-size:150px;}
	.st6{font-family:'Eurostile-Medium';}
	.st7{font-size:30px;}
</style>
<path class="st0" d="M540.04,56.15V540l-6.87-16.6l-31.87-76.93v-0.01l-9.65-23.28L354.83,92.88l4.62-1.91l-4.03-9.74l-17.46-42.14
	C378.52,22.71,421.51,11.11,466.28,5h68.76v51.15H540.04z"/>
<path class="st1" d="M540.04,540L197.91,197.87l3.54-3.54l-7.44-7.44l-32.25-32.25c1.5-1.47,3-2.93,4.51-4.38
	c1.89-1.81,3.79-3.61,5.71-5.4c1.92-1.78,3.84-3.55,5.79-5.31c0.97-0.88,1.94-1.76,2.92-2.63c1.95-1.74,3.92-3.47,5.9-5.19
	c0.99-0.86,1.98-1.71,2.98-2.56c4.78-4.08,9.63-8.08,14.56-12c3.28-2.61,6.59-5.19,9.94-7.72c3.34-2.54,6.72-5.03,10.12-7.49
	c32.34-23.36,67.37-43.23,104.54-59.04l17.45,42.14l4.03,9.73l4.62-1.91l136.82,330.3l9.65,23.28v0.01l31.87,76.93L540.04,540z"/>
<path class="st0" d="M540.04,540l-16.6-6.87l-29.81-12.35l-1.98-0.82L92.92,354.79l1.91-4.62l-9.73-4.03l-42.14-17.45
	c15.81-37.17,35.68-72.2,59.04-104.54c2.46-3.4,4.95-6.78,7.49-10.12c2.53-3.35,5.11-6.66,7.72-9.94c3.92-4.93,7.92-9.78,12-14.56
	c0.85-1,1.7-1.99,2.56-2.98c1.72-1.98,3.45-3.95,5.19-5.9c0.87-0.98,1.75-1.95,2.63-2.92c1.76-1.95,3.53-3.87,5.31-5.79
	c1.79-1.92,3.59-3.82,5.4-5.71c1.45-1.51,2.91-3.01,4.38-4.51l39.69,39.69l3.54-3.54L540.04,540z"/>
<path class="st1" d="M540.04,540H56.19v-5H5.04v-68.76c6.11-44.77,17.71-87.76,34.09-128.32l42.14,17.46l9.74,4.03l1.91-4.62
	l398.73,165.17l1.98,0.82l29.81,12.35L540.04,540z"/>
<path class="st0" d="M540.04,540l-12.07,5l-4.53,1.87l-21.6,8.95l-8.15,3.38l-2.04,0.84L92.92,725.21l-1.91-4.62l-9.74,4.03
	l-42.14,17.46c-16.38-40.56-27.98-83.55-34.09-128.32V545h51.15v-5H540.04z"/>
<path class="st1" d="M540.04,540L197.91,882.13l-3.54-3.54l-39.69,39.69h-0.01c-46.95-47.83-85.08-104.37-111.71-166.97l42.14-17.45
	l9.73-4.03l-1.91-4.62l398.73-165.17l2.04-0.84l8.15-3.38l21.6-8.95l4.53-1.87L540.04,540z"/>
<path class="st0" d="M540.04,540l-2.07,5l-4.8,11.6l-12.07,29.13l-19.56,47.22v0.01l-9.89,23.86l-136.82,330.3l-4.62-1.91
	l-4.03,9.73l-17.45,42.14c-62.6-26.63-119.14-64.76-166.97-111.71v-0.01l39.69-39.69l-3.54-3.54L540.04,540z"/>
<path class="st1" d="M540.04,540v483.85h-5V1075h-68.76c-44.77-6.11-87.76-17.71-128.32-34.09l17.46-42.14l4.03-9.74l-4.62-1.91
	l136.82-330.3l9.89-23.86v-0.01l19.56-47.22l12.07-29.13l4.8-11.6L540.04,540z"/>
<path class="st0" d="M742.12,1040.91c-40.56,16.38-83.55,27.98-128.32,34.09h-68.76v-51.15h-5V540l2.07,5l4.8,11.6l12.07,29.13
	l19.56,47.22v0.01l9.89,23.86l136.82,330.3l-4.62,1.91l4.03,9.74L742.12,1040.91z"/>
<path class="st1" d="M918.32,925.36v0.01c-47.83,46.95-104.37,85.08-166.97,111.71l-17.45-42.14l-4.03-9.73l-4.62,1.91
	l-136.82-330.3l-9.89-23.86v-0.01l-19.56-47.22l-12.07-29.13l-4.8-11.6l-2.07-5l342.13,342.13l-3.54,3.54L918.32,925.36z"/>
<path class="st0" d="M1037.12,751.31c-26.63,62.6-64.76,119.14-111.71,166.97h-0.01l-39.69-39.69l-3.54,3.54L540.04,540l12.07,5
	l4.53,1.87l21.6,8.95l8.15,3.38l2.04,0.84l398.73,165.17l-1.91,4.62l9.73,4.03L1037.12,751.31z"/>
<path class="st1" d="M1075.04,545v68.76c-6.11,44.77-17.71,87.76-34.09,128.32l-42.14-17.46l-9.74-4.03l-1.91,4.62L588.43,560.04
	l-2.04-0.84l-8.15-3.38l-21.6-8.95l-4.53-1.87l-12.07-5h483.85v5H1075.04z"/>
<path class="st0" d="M1075.04,466.24V535h-51.15v5H540.04l16.6-6.87l29.81-12.35l1.98-0.82l398.73-165.17l1.91,4.62l9.74-4.03
	l42.14-17.46C1057.33,378.48,1068.93,421.47,1075.04,466.24z"/>
<path class="st1" d="M994.98,346.14l-9.73,4.03l1.91,4.62L588.43,519.96l-1.98,0.82l-29.81,12.35l-16.6,6.87l342.13-342.13
	l3.54,3.54l39.69-39.69c1.47,1.5,2.93,3,4.38,4.51c1.45,1.51,2.89,3.03,4.32,4.56c1.43,1.53,2.86,3.07,4.27,4.61
	c1.33,1.45,2.65,2.91,3.96,4.37c0.26,0.29,0.53,0.58,0.79,0.88c1.22,1.37,2.43,2.74,3.63,4.12c1.38,1.58,2.75,3.16,4.12,4.76
	c1.31,1.53,2.61,3.07,3.9,4.62c0.12,0.14,0.24,0.29,0.37,0.44c1.27,1.53,2.53,3.06,3.78,4.6c1.33,1.62,2.64,3.26,3.95,4.9
	c2.61,3.28,5.19,6.59,7.72,9.94c2.54,3.34,5.03,6.72,7.49,10.12c1.08,1.5,2.15,3,3.22,4.51c0.21,0.29,0.41,0.59,0.62,0.88
	c0.04,0.06,0.08,0.12,0.13,0.18c1.02,1.46,2.05,2.93,3.06,4.4c0.03,0.04,0.06,0.09,0.09,0.13c0.1,0.14,0.19,0.28,0.29,0.42
	c1.1,1.6,2.19,3.21,3.28,4.83c0.04,0.06,0.08,0.12,0.11,0.17c1.17,1.75,2.33,3.5,3.48,5.26c1.08,1.64,2.14,3.29,3.2,4.94
	c0.2,0.32,0.4,0.63,0.6,0.95c0.79,1.24,1.57,2.48,2.35,3.73c0.45,0.73,0.91,1.46,1.36,2.19c0.73,1.19,1.46,2.38,2.18,3.57
	c0.39,0.64,0.77,1.28,1.16,1.92c0.67,1.1,1.32,2.2,1.98,3.31c0.27,0.46,0.54,0.92,0.81,1.38c0.72,1.22,1.43,2.45,2.14,3.68
	c0.14,0.25,0.29,0.5,0.43,0.75c0.38,0.65,0.76,1.32,1.13,1.98c0.6,1.04,1.19,2.08,1.77,3.13c0.07,0.14,0.15,0.28,0.23,0.42
	c0.19,0.33,0.38,0.67,0.57,1.01c0.93,1.67,1.85,3.34,2.76,5.03c0.88,1.62,1.76,3.25,2.62,4.89c0.19,0.35,0.37,0.7,0.56,1.06
	c0.92,1.75,1.83,3.5,2.73,5.26c0.97,1.89,1.92,3.77,2.86,5.67c0.8,1.6,1.59,3.2,2.37,4.81c0.16,0.33,0.31,0.65,0.47,0.98
	c1.83,3.78,3.61,7.59,5.35,11.43c0.88,1.94,1.74,3.87,2.6,5.82c0.85,1.94,1.7,3.89,2.53,5.85L994.98,346.14z"/>
<path class="st0" d="M886.07,186.89l-7.44,7.44l3.54,3.54L540.04,540l6.87-16.6l31.87-76.93v-0.01l9.65-23.28l136.82-330.3
	l4.62,1.91l4.03-9.73l17.45-42.14c1.96,0.83,3.91,1.68,5.85,2.53c1.95,0.86,3.88,1.72,5.82,2.6c3.84,1.74,7.65,3.52,11.43,5.35
	c0.33,0.16,0.65,0.31,0.98,0.47c1.61,0.78,3.21,1.57,4.81,2.37c1.9,0.94,3.78,1.89,5.67,2.86c1.76,0.9,3.51,1.81,5.26,2.73
	c0.36,0.19,0.71,0.37,1.06,0.56c1.64,0.86,3.27,1.74,4.89,2.62c1.69,0.91,3.36,1.83,5.03,2.76c0.34,0.19,0.68,0.38,1.01,0.57
	c0.14,0.08,0.28,0.16,0.42,0.23c1.05,0.58,2.09,1.17,3.13,1.77c0.66,0.37,1.33,0.75,1.98,1.13c0.25,0.14,0.5,0.29,0.75,0.43
	c1.23,0.71,2.46,1.42,3.68,2.14c0.46,0.27,0.92,0.54,1.38,0.81c1.11,0.66,2.21,1.31,3.31,1.98c0.64,0.39,1.28,0.77,1.92,1.16
	c1.19,0.72,2.38,1.45,3.57,2.18c0.73,0.45,1.46,0.91,2.19,1.36c1.25,0.78,2.49,1.56,3.73,2.35c0.32,0.2,0.63,0.4,0.95,0.6
	c1.65,1.06,3.3,2.12,4.94,3.2c1.76,1.15,3.51,2.31,5.26,3.48c0.05,0.03,0.11,0.07,0.17,0.11c1.62,1.09,3.23,2.18,4.83,3.28
	c0.14,0.1,0.28,0.19,0.42,0.29c0.04,0.03,0.09,0.06,0.13,0.09c1.47,1.01,2.94,2.04,4.4,3.06c0.06,0.05,0.12,0.09,0.18,0.13
	c0.29,0.21,0.59,0.41,0.88,0.62c1.51,1.07,3.01,2.14,4.51,3.22c3.4,2.46,6.78,4.95,10.12,7.49c3.35,2.53,6.66,5.11,9.94,7.72
	c1.64,1.31,3.28,2.62,4.9,3.95c1.54,1.25,3.07,2.51,4.6,3.78c0.15,0.13,0.3,0.25,0.44,0.37c1.55,1.29,3.09,2.59,4.62,3.9
	c1.6,1.37,3.18,2.74,4.76,4.12c1.38,1.2,2.75,2.41,4.12,3.63c0.3,0.26,0.59,0.53,0.88,0.79c1.46,1.31,2.92,2.63,4.37,3.96
	c1.54,1.41,3.08,2.84,4.61,4.27s3.05,2.87,4.56,4.32c1.51,1.45,3.01,2.91,4.51,4.38L886.07,186.89z"/>
<path class="st1" d="M720.63,90.97l4.62,1.91l-136.82,330.3l-9.65,23.28v0.01l-31.87,76.93l-6.87,16.6V56.15h5V5h68.76
	c44.77,6.11,87.76,17.71,128.32,34.09l-17.46,42.14L720.63,90.97z"/>
<path class="st2" d="M1080.02,535c-0.21-23.3-1.9-46.25-4.98-68.76c-6.11-44.77-17.71-87.76-34.09-128.32
	c-1.24-3.1-2.52-6.16-3.83-9.23c-0.83-1.96-1.68-3.91-2.53-5.85c-0.86-1.95-1.72-3.88-2.6-5.82c-1.74-3.84-3.52-7.65-5.35-11.43
	c-0.16-0.33-0.31-0.65-0.47-0.98c-0.78-1.61-1.57-3.21-2.37-4.81c-0.94-1.9-1.89-3.78-2.86-5.67c-0.9-1.76-1.81-3.51-2.73-5.26
	c-0.19-0.36-0.37-0.71-0.56-1.06c-0.86-1.64-1.74-3.27-2.62-4.89c-0.91-1.69-1.83-3.36-2.76-5.03c-0.19-0.34-0.38-0.68-0.57-1.01
	c-0.08-0.14-0.16-0.28-0.23-0.42c-0.58-1.05-1.17-2.09-1.77-3.13c-0.37-0.66-0.75-1.33-1.13-1.98c-0.14-0.25-0.29-0.5-0.43-0.75
	c-0.71-1.23-1.42-2.46-2.14-3.68c-0.27-0.46-0.54-0.92-0.81-1.38c-0.66-1.11-1.31-2.21-1.98-3.31c-0.39-0.64-0.77-1.28-1.16-1.92
	c-0.72-1.19-1.45-2.38-2.18-3.57c-0.45-0.73-0.91-1.46-1.36-2.19c-0.78-1.25-1.56-2.49-2.35-3.73c-0.2-0.32-0.4-0.63-0.6-0.95
	c-1.06-1.65-2.12-3.3-3.2-4.94c-1.15-1.76-2.31-3.51-3.48-5.26c-0.03-0.05-0.07-0.11-0.11-0.17c-1.09-1.62-2.18-3.23-3.28-4.83
	c-0.1-0.14-0.19-0.28-0.29-0.42c-0.03-0.04-0.06-0.09-0.09-0.13c-1.01-1.47-2.04-2.94-3.06-4.4c-0.05-0.06-0.09-0.12-0.13-0.18
	c-0.21-0.29-0.41-0.59-0.62-0.88c-1.07-1.51-2.14-3.01-3.22-4.51c-2.46-3.4-4.95-6.78-7.49-10.12c-2.53-3.35-5.11-6.66-7.72-9.94
	c-1.31-1.64-2.62-3.28-3.95-4.9c-1.25-1.54-2.51-3.07-3.78-4.6c-0.13-0.15-0.25-0.3-0.37-0.44c-1.29-1.55-2.59-3.09-3.9-4.62
	c-1.37-1.6-2.74-3.18-4.12-4.76c-1.2-1.38-2.41-2.75-3.63-4.12c-0.26-0.3-0.53-0.59-0.79-0.88c-1.31-1.46-2.63-2.92-3.96-4.37
	c-1.41-1.54-2.84-3.08-4.27-4.61c-1.43-1.53-2.87-3.05-4.32-4.56c-1.44-1.51-2.9-3.01-4.37-4.51c-1.17-1.19-2.35-2.38-3.53-3.56
	s-2.37-2.36-3.56-3.53c-1.5-1.47-3-2.93-4.51-4.37c-1.51-1.45-3.03-2.89-4.56-4.32s-3.07-2.86-4.61-4.27
	c-1.45-1.33-2.91-2.65-4.37-3.96c-0.29-0.26-0.58-0.53-0.88-0.79c-1.37-1.22-2.74-2.43-4.12-3.63c-1.58-1.38-3.16-2.75-4.76-4.12
	c-1.53-1.31-3.07-2.61-4.62-3.9c-0.14-0.12-0.29-0.24-0.44-0.37c-1.53-1.27-3.06-2.53-4.6-3.78c-1.62-1.33-3.26-2.64-4.9-3.95
	c-3.28-2.61-6.59-5.19-9.94-7.72c-3.34-2.54-6.72-5.03-10.12-7.49c-1.5-1.08-3-2.15-4.51-3.22c-0.29-0.21-0.59-0.41-0.88-0.62
	c-0.06-0.04-0.12-0.08-0.18-0.13c-1.46-1.02-2.93-2.05-4.4-3.06c-0.04-0.03-0.09-0.06-0.13-0.09c-0.14-0.1-0.28-0.19-0.42-0.29
	c-1.6-1.1-3.21-2.19-4.83-3.28c-0.06-0.04-0.12-0.08-0.17-0.11c-1.75-1.17-3.5-2.33-5.26-3.48c-1.64-1.08-3.29-2.14-4.94-3.2
	c-0.32-0.2-0.63-0.4-0.95-0.6c-1.24-0.79-2.48-1.57-3.73-2.35c-0.73-0.45-1.46-0.91-2.19-1.36c-1.19-0.73-2.38-1.46-3.57-2.18
	c-0.64-0.39-1.28-0.77-1.92-1.16c-1.1-0.67-2.2-1.32-3.31-1.98c-0.46-0.27-0.92-0.54-1.38-0.81c-1.22-0.72-2.45-1.43-3.68-2.14
	c-0.25-0.14-0.5-0.29-0.75-0.43c-0.65-0.38-1.32-0.76-1.98-1.13c-1.04-0.6-2.08-1.19-3.13-1.77c-0.14-0.07-0.28-0.15-0.42-0.23
	c-0.33-0.19-0.67-0.38-1.01-0.57c-1.67-0.93-3.34-1.85-5.03-2.76c-1.62-0.88-3.25-1.76-4.89-2.62c-0.35-0.19-0.7-0.37-1.06-0.56
	c-1.75-0.92-3.5-1.83-5.26-2.73c-1.89-0.97-3.77-1.92-5.67-2.86c-1.6-0.8-3.2-1.59-4.81-2.37c-0.33-0.16-0.65-0.31-0.98-0.47
	c-3.78-1.83-7.59-3.61-11.43-5.35c-1.94-0.88-3.87-1.74-5.82-2.6c-1.94-0.85-3.89-1.7-5.85-2.53c-3.07-1.31-6.13-2.59-9.23-3.83
	C701.56,22.71,658.57,11.11,613.8,5c-22.51-3.08-45.46-4.77-68.76-4.98c-1.66-0.01-3.33-0.02-5-0.02s-3.34,0.01-5,0.02
	c-23.3,0.21-46.25,1.9-68.76,4.98c-44.77,6.11-87.76,17.71-128.32,34.09c-3.1,1.24-6.16,2.52-9.23,3.83
	c-37.17,15.81-72.2,35.68-104.54,59.04c-3.4,2.46-6.78,4.95-10.12,7.49c-3.35,2.53-6.66,5.11-9.94,7.72
	c-4.93,3.92-9.78,7.92-14.56,12c-1,0.85-1.99,1.7-2.98,2.56c-1.98,1.72-3.95,3.45-5.9,5.19c-0.98,0.87-1.95,1.75-2.92,2.63
	c-1.95,1.75-3.87,3.53-5.79,5.31c-1.92,1.79-3.82,3.59-5.71,5.4c-1.51,1.44-3.01,2.9-4.51,4.37c-1.19,1.17-2.38,2.35-3.56,3.53
	c-1.18,1.18-2.36,2.37-3.53,3.56c-1.47,1.5-2.93,3-4.37,4.51c-1.81,1.89-3.61,3.79-5.4,5.71c-1.78,1.92-3.55,3.84-5.31,5.79
	c-0.88,0.97-1.76,1.94-2.63,2.92c-1.74,1.95-3.47,3.92-5.19,5.9c-0.86,0.99-1.71,1.98-2.56,2.98c-4.08,4.78-8.08,9.63-12,14.56
	c-2.61,3.28-5.19,6.59-7.72,9.94c-2.54,3.34-5.03,6.72-7.49,10.12c-23.36,32.34-43.23,67.37-59.04,104.54
	c-1.31,3.07-2.59,6.13-3.83,9.23c-16.38,40.56-27.98,83.55-34.09,128.32C1.96,488.75,0.27,511.7,0.06,535
	c-0.01,1.66-0.02,3.33-0.02,5c0,1.67,0.01,3.34,0.02,5c0.21,23.3,1.9,46.25,4.98,68.76c6.11,44.77,17.71,87.76,34.09,128.32
	c1.24,3.1,2.52,6.16,3.83,9.23c26.63,62.6,64.76,119.14,111.71,166.97c1.17,1.19,2.35,2.38,3.53,3.56c1.18,1.18,2.37,2.36,3.56,3.53
	c47.83,46.95,104.37,85.08,166.97,111.71c3.07,1.31,6.13,2.59,9.23,3.83c40.56,16.38,83.55,27.98,128.32,34.09
	c22.51,3.08,45.46,4.77,68.76,4.98c1.66,0.01,3.33,0.02,5,0.02s3.34-0.01,5-0.02c23.3-0.21,46.25-1.9,68.76-4.98
	c44.77-6.11,87.76-17.71,128.32-34.09c3.1-1.24,6.16-2.52,9.23-3.83c62.6-26.63,119.14-64.76,166.97-111.71
	c1.19-1.17,2.38-2.35,3.56-3.53s2.36-2.37,3.53-3.56c46.95-47.83,85.08-104.37,111.71-166.97c1.31-3.07,2.59-6.13,3.83-9.23
	c16.38-40.56,27.98-83.55,34.09-128.32c3.08-22.51,4.77-45.46,4.98-68.76c0.01-1.66,0.02-3.33,0.02-5
	C1080.04,538.33,1080.03,536.66,1080.02,535z M1034.41,545c-0.62,63.44-13.2,124.04-35.6,179.62c-1.24,3.1-2.52,6.18-3.83,9.24
	c-24.33,57.03-59.06,108.56-101.83,152.17c-2.32,2.39-4.69,4.76-7.08,7.08c-43.61,42.77-95.14,77.5-152.17,101.83
	c-3.06,1.31-6.14,2.59-9.24,3.83c-55.58,22.4-116.18,34.98-179.62,35.6c-1.66,0.02-3.33,0.02-5,0.02s-3.34,0-5-0.02
	c-63.44-0.62-124.04-13.2-179.62-35.6c-3.1-1.24-6.18-2.52-9.24-3.83c-57.03-24.33-108.56-59.06-152.17-101.83
	c-2.39-2.32-4.76-4.69-7.08-7.08c-42.77-43.61-77.5-95.14-101.83-152.17c-1.31-3.06-2.59-6.14-3.83-9.24
	C58.87,669.04,46.29,608.44,45.67,545c-0.02-1.66-0.02-3.33-0.02-5c0-1.67,0-3.34,0.02-5c0.62-63.44,13.2-124.04,35.6-179.62
	c1.24-3.1,2.52-6.18,3.83-9.24c24.33-57.03,59.06-108.56,101.83-152.17c2.32-2.39,4.69-4.76,7.08-7.08
	c43.61-42.77,95.14-77.5,152.17-101.83c3.06-1.31,6.14-2.59,9.24-3.83C411,58.83,471.6,46.25,535.04,45.63
	c1.66-0.02,3.33-0.02,5-0.02s3.34,0,5,0.02c63.44,0.62,124.04,13.2,179.62,35.6c3.1,1.24,6.18,2.52,9.24,3.83
	c57.03,24.33,108.56,59.06,152.17,101.83c2.39,2.32,4.76,4.69,7.08,7.08c42.77,43.61,77.5,95.14,101.83,152.17
	c1.31,3.06,2.59,6.14,3.83,9.24c22.4,55.58,34.98,116.18,35.6,179.62c0.02,1.66,0.02,3.33,0.02,5
	C1034.43,541.67,1034.43,543.34,1034.41,545z"/>
<path d="M998.81,355.38l-9.74,4.03l-1.91-4.62l-1.91-4.62l9.73-4.03C996.29,349.2,997.57,352.28,998.81,355.38z"/>
<path d="M893.15,193.97l-7.44,7.44l-3.54-3.54l-3.54-3.54l7.44-7.44C888.46,189.21,890.83,191.58,893.15,193.97z"/>
<path d="M1034.43,540c0,1.67,0,3.34-0.02,5h-10.52v-10h10.52C1034.43,536.66,1034.43,538.33,1034.43,540z"/>
<path d="M998.81,724.62c-1.24,3.1-2.52,6.18-3.83,9.24l-9.73-4.03l1.91-4.62l1.91-4.62L998.81,724.62z"/>
<path d="M893.15,886.03c-2.32,2.39-4.69,4.76-7.08,7.08l-7.44-7.44l3.54-3.54l3.54-3.54L893.15,886.03z"/>
<path d="M733.9,994.94c-3.06,1.31-6.14,2.59-9.24,3.83l-4.03-9.74l4.62-1.91l4.62-1.91L733.9,994.94z"/>
<path d="M545.04,1023.85v10.52c-1.66,0.02-3.33,0.02-5,0.02s-3.34,0-5-0.02v-10.52H545.04z"/>
<path d="M359.45,989.03l-4.03,9.74c-3.1-1.24-6.18-2.52-9.24-3.83l4.03-9.73l4.62,1.91L359.45,989.03z"/>
<path d="M201.45,885.67l-7.44,7.44c-2.39-2.32-4.76-4.69-7.08-7.08l7.44-7.44l3.54,3.54L201.45,885.67z"/>
<path d="M94.83,729.83l-9.73,4.03c-1.31-3.06-2.59-6.14-3.83-9.24l9.74-4.03l1.91,4.62L94.83,729.83z"/>
<path d="M56.19,535v10H45.67c-0.02-1.66-0.02-3.33-0.02-5c0-1.67,0-3.34,0.02-5H56.19z"/>
<path d="M94.83,350.17l-1.91,4.62l-1.91,4.62l-9.74-4.03c1.24-3.1,2.52-6.18,3.83-9.24L94.83,350.17z"/>
<path d="M733.9,85.06l-4.03,9.73l-4.62-1.91l-4.62-1.91l4.03-9.74C727.76,82.47,730.84,83.75,733.9,85.06z"/>
<path d="M545.04,45.63v10.52h-10V45.63c1.66-0.02,3.33-0.02,5-0.02S543.38,45.61,545.04,45.63z"/>
<path d="M359.45,90.97l-4.62,1.91l-4.62,1.91l-4.03-9.73c3.06-1.31,6.14-2.59,9.24-3.83L359.45,90.97z"/>
<path d="M201.45,194.33l-3.54,3.54l-3.54,3.54l-7.44-7.44c2.32-2.39,4.69-4.76,7.08-7.08L201.45,194.33z"/>
<rect x="460.24" y="67.11" class="st3" width="159.59" height="145.83"/>
<text transform="matrix(1 0 0 1 490.6909 173.6128)" class="st4 st5">N</text>
<rect x="67.15" y="460.2" class="st3" width="145.83" height="159.59"/>
<text transform="matrix(0 -1 1 0 173.6528 603.4492)" class="st4 st5">W</text>
<rect x="460.24" y="867.05" class="st3" width="159.59" height="145.83"/>
<text transform="matrix(-1 0 0 -1 577.0146 906.3857)" class="st4 st5">S</text>
<rect x="867.09" y="460.2" class="st3" width="145.83" height="159.59"/>
<text transform="matrix(0 1 -1 0 900.4248 498)" class="st6 st5">E</text>
<path id="SVGID_x5F_1_x5F_" class="st3" d="M1051.96,540c0,282.73-229.2,511.92-511.92,511.92S28.12,822.73,28.12,540
	S257.31,28.08,540.04,28.08S1051.96,257.27,1051.96,540z"/>
<text class="st4 st7"><textPath  xlink:href="#SVGID_x5F_1_x5F_" startOffset="95.9687%">
0</textPath>
</text>
<path id="SVGID_x5F_2_x5F_" class="st3" d="M1051.96,540c0,282.73-229.2,511.92-511.92,511.92S28.12,822.73,28.12,540
	S257.31,28.08,540.04,28.08S1051.96,257.27,1051.96,540z"/>
<text><textPath  xlink:href="#SVGID_x5F_2_x5F_" startOffset="178.9267%">
<tspan  class="st4 st7">225</tspan></textPath>
</text>
<path id="SVGID_x5F_3_x5F_" class="st3" d="M1051.96,540c0,282.73-229.2,511.92-511.92,511.92S28.12,822.73,28.12,540
	S257.31,28.08,540.04,28.08S1051.96,257.27,1051.96,540z"/>
<text><textPath  xlink:href="#SVGID_x5F_3_x5F_" startOffset="29.303%">
<tspan  class="st4 st7">180</tspan></textPath>
</text>
<path id="SVGID_x5F_4_x5F_" class="st3" d="M1051.96,540c0,282.73-229.2,511.92-511.92,511.92S28.12,822.73,28.12,540
	S257.31,28.08,540.04,28.08S1051.96,257.27,1051.96,540z"/>
<text><textPath  xlink:href="#SVGID_x5F_4_x5F_" startOffset="83.5367%">
<tspan  class="st4 st7">135</tspan></textPath>
</text>
<path id="SVGID_x5F_5_x5F_" class="st3" d="M1051.96,540c0,282.73-229.2,511.92-511.92,511.92S28.12,822.73,28.12,540
	S257.31,28.08,540.04,28.08S1051.96,257.27,1051.96,540z"/>
<text><textPath  xlink:href="#SVGID_x5F_5_x5F_" startOffset="129.3397%">
<tspan  class="st4 st7">90</tspan></textPath>
</text>
<path id="SVGID_x5F_6_x5F_" class="st3" d="M1051.96,540c0,282.73-229.2,511.92-511.92,511.92S28.12,822.73,28.12,540
	S257.31,28.08,540.04,28.08S1051.96,257.27,1051.96,540z"/>
<text><textPath  xlink:href="#SVGID_x5F_6_x5F_" startOffset="112.4083%">
<tspan  class="st4 st7">45</tspan></textPath>
</text>
<path id="SVGID_x5F_7_x5F_" class="st3" d="M1051.96,540c0,282.73-229.2,511.92-511.92,511.92S28.12,822.73,28.12,540
	S257.31,28.08,540.04,28.08S1051.96,257.27,1051.96,540z"/>
<text><textPath  xlink:href="#SVGID_x5F_7_x5F_" startOffset="79.075%">
<tspan  class="st4 st7">315</tspan></textPath>
</text>
<path id="SVGID_x5F_8_x5F_" class="st3" d="M1051.96,540c0,282.73-229.2,511.92-511.92,511.92S28.12,822.73,28.12,540
	S257.31,28.08,540.04,28.08S1051.96,257.27,1051.96,540z"/>
<text><textPath  xlink:href="#SVGID_x5F_8_x5F_" startOffset="62.6363%">
<tspan  class="st4 st7">270</tspan></textPath>
</text>
</svg>
