<?xml version="1.0" encoding="utf-8"?>
<!-- Generator: Adobe Illustrator 23.0.1, SVG Export Plug-In . SVG Version: 6.00 Build 0)  -->
<svg version="1.1" id="Calque_3" xmlns="http://www.w3.org/2000/svg" xmlns:xlink="http://www.w3.org/1999/xlink" x="0px" y="0px"
	 viewBox="0 0 1080 1080" style="enable-background:new 0 0 1080 1080;" xml:space="preserve">
<style type="text/css">
	.st0{fill:#424242;}
	.st1{fill:#FFFFFF;}
</style>
<path class="st0" d="M540,0C241.8,0,0,241.8,0,540s241.8,540,540,540s540-241.8,540-540S838.3,0,540,0z M539.3,1033.4
	c-272.1,0-492.6-220.9-492.6-493.4S267.2,46.6,539.3,46.6s492.6,220.9,492.6,493.4S811.3,1033.4,539.3,1033.4z"/>
<circle class="st1" cx="540" cy="540" r="513"/>
<circle cx="540" cy="540" r="31.6"/>
<rect x="527.8" y="393.9" width="23" height="50.9"/>
<rect x="527.8" y="292.1" width="23" height="50.9"/>
<rect x="527.8" y="190.3" width="23" height="50.9"/>
<rect x="527.8" y="88.5" width="23" height="50.9"/>
</svg>
