<?xml version="1.0" encoding="utf-8"?>
<!-- Generator: Adobe Illustrator 23.0.1, SVG Export Plug-In . SVG Version: 6.00 Build 0)  -->
<svg version="1.1" id="Calque_3" xmlns="http://www.w3.org/2000/svg" xmlns:xlink="http://www.w3.org/1999/xlink" x="0px" y="0px"
	 viewBox="0 0 1080 1080" style="enable-background:new 0 0 1080 1080;" xml:space="preserve">
<style type="text/css">
	.st0{fill:#383838;}
</style>
<path class="st0" d="M540,0C241.8,0,0,241.8,0,540s241.8,540,540,540s540-241.8,540-540S838.3,0,540,0z M46.7,540
	c0-272.5,220.5-493.4,492.6-493.4s492.6,220.9,492.6,493.4s-220.6,493.4-492.6,493.4C267.2,1033.4,46.7,812.5,46.7,540z"/>
<rect x="921.8" y="528.5" width="50.9" height="23"/>
<rect x="718.1" y="528.5" width="50.9" height="23"/>
<rect x="616.3" y="528.5" width="50.9" height="23"/>
<rect x="514.5" y="528.5" width="50.9" height="23"/>
<rect x="820" y="528.5" width="50.9" height="23"/>
<rect x="412.8" y="528.5" width="50.9" height="23"/>
<rect x="311" y="528.5" width="50.9" height="23"/>
<rect x="209.1" y="528.5" width="50.9" height="23"/>
<rect x="107.3" y="528.5" width="50.9" height="23"/>
</svg>
