<?xml version="1.0" encoding="utf-8"?>
<!-- Generator: Adobe Illustrator 23.0.1, SVG Export Plug-In . SVG Version: 6.00 Build 0)  -->
<svg version="1.1" id="Calque_1" xmlns="http://www.w3.org/2000/svg" xmlns:xlink="http://www.w3.org/1999/xlink" x="0px" y="0px"
	 viewBox="0 0 1080 1080" style="enable-background:new 0 0 1080 1080;" xml:space="preserve">
<style type="text/css">
	.st0{display:none;}
	.st1{display:none;fill:#FA0F0C;}
	.st2{fill:#FA0F0C;}
	.st3{fill:#5F430F;}
	.st4{fill:#744E13;}
	.st5{fill:#706F6E;}
	.st6{fill:#EFEFEF;}
</style>
<path class="st0" d="M0.08,530.69C0.03,533.79,0,536.89,0,540v-9.31H0.08z"/>
<path class="st0" d="M1080,530.69V540c0-3.11-0.03-6.21-0.08-9.31H1080z"/>
<path class="st0" d="M1080,540v9.31h-0.08C1079.97,546.21,1080,543.11,1080,540z"/>
<path class="st0" d="M0.08,549.31H0V540C0,543.11,0.03,546.21,0.08,549.31z"/>
<path class="st1" d="M620.28,530.69c-3.59,6.16-8.98,12.46-15.3,18.62H475.04c-6.33-6.15-11.72-12.46-15.32-18.62H620.28z"/>
<g>
	<path d="M1079.92,518.21h-0.35c-2.67-67.47-17.65-132.83-44.61-194.45c-27.68-63.26-66.77-120-116.19-168.64
		c-49.46-48.68-106.86-86.88-170.6-113.53C682.17,13.99,612.13,0,540,0S397.83,13.99,331.83,41.59
		c-63.74,26.65-121.14,64.85-170.6,113.53C111.81,203.76,72.72,260.5,45.04,323.76C18.08,385.38,3.09,450.74,0.43,518.21H0v30.88
		l0.02,2.59l0.06,10.11h0.35c2.66,67.47,17.65,132.83,44.61,194.45c27.68,63.26,66.77,120,116.19,168.64
		c49.46,48.68,106.86,86.88,170.6,113.53c66,27.6,136.04,41.59,208.17,41.59s142.17-13.99,208.17-41.59
		c63.74-26.65,121.14-64.85,170.6-113.53c49.42-48.64,88.51-105.38,116.19-168.64c26.96-61.62,41.94-126.98,44.61-194.45h0.43
		v-30.88L1079.92,518.21z M1054.61,535.64v8.72l-0.08,4.52c-0.02,0.93-0.03,1.87-0.06,2.8c-6.19,277.58-236.4,502.93-514.47,502.93
		S31.72,829.26,25.53,551.68c-0.03-0.93-0.04-1.87-0.06-2.8l-0.08-3.3v-9.94l0.05-2.58l0.03-1.94C30.18,252.26,261,25.39,540,25.39
		s509.82,226.87,514.53,505.73l0.03,1.94L1054.61,535.64z"/>
</g>
<polygon class="st2" points="0.02,551.68 0,551.68 0,549.09 "/>
<path class="st2" d="M465.04,551.68H25.53c-0.03-0.93-0.04-1.87-0.06-2.8l-0.08-3.3v-9.94l0.05-2.58h424.28
	C453.32,539.22,458.71,545.53,465.04,551.68z"/>
<path class="st2" d="M1054.61,535.64v8.72l-0.08,4.52c-0.02,0.93-0.03,1.87-0.06,2.8H614.98c6.32-6.16,11.71-12.46,15.3-18.62
	h424.28L1054.61,535.64z"/>
<g>
	<path class="st3" d="M540.01,495.83v102.24c0,0-39.83-21.95-64.97-46.39c-6.33-6.15-11.72-12.46-15.32-18.62
		c-4.8-8.22-6.38-16.18-2.69-23.12l80.15-13.63L540.01,495.83z"/>
	<path class="st4" d="M620.28,533.06c-3.59,6.16-8.98,12.46-15.3,18.62c-25.13,24.44-64.97,46.39-64.97,46.39V495.83l2.81,0.48
		l80.15,13.63C626.67,516.88,625.08,524.83,620.28,533.06z"/>
	<polygon class="st5" points="542.82,361.93 542.82,496.31 540.01,495.83 537.18,496.31 537.18,361.93 	"/>
	<path class="st6" d="M537.18,368.16v114.39c-23.57,0.39-82.19,5.23-82.19,5.23s5.27-44.81,5.27-59.81
		c0-15.02-5.27-59.81-5.27-59.81H537.18z"/>
	<path class="st6" d="M619.74,427.98c0,15,5.27,59.81,5.27,59.81s-58.62-4.85-82.19-5.23V368.16h82.19
		C625.01,368.16,619.74,412.96,619.74,427.98z"/>
</g>
</svg>
