<?xml version="1.0" encoding="utf-8"?>
<!-- Generator: Adobe Illustrator 23.0.1, SVG Export Plug-In . SVG Version: 6.00 Build 0)  -->
<svg version="1.1" id="Calque_1" xmlns="http://www.w3.org/2000/svg" xmlns:xlink="http://www.w3.org/1999/xlink" x="0px" y="0px"
	 viewBox="0 0 1080 1080" style="enable-background:new 0 0 1080 1080;" xml:space="preserve">
<style type="text/css">
	.st0{display:none;}
	.st1{display:none;fill:#FA0F0C;}
	.st2{fill:#77A7CE;}
	.st3{fill:#1D4384;}
</style>
<path class="st0" d="M0.08,530.69C0.03,533.79,0,536.89,0,540v-9.31H0.08z"/>
<path class="st0" d="M1080,530.69V540c0-3.11-0.03-6.21-0.08-9.31H1080z"/>
<path class="st0" d="M1080,540v9.31h-0.08C1079.97,546.21,1080,543.11,1080,540z"/>
<path class="st0" d="M0.08,549.31H0V540C0,543.11,0.03,546.21,0.08,549.31z"/>
<path class="st1" d="M620.28,530.69c-3.59,6.16-8.98,12.46-15.3,18.62H475.04c-6.33-6.15-11.72-12.46-15.32-18.62H620.28z"/>
<g>
	<path class="st2" d="M1080,540H0C0,241.77,241.77,0,540,0S1080,241.77,1080,540z"/>
	<path class="st3" d="M1080,540c0,298.23-241.77,540-540,540S0,838.23,0,540H1080z"/>
</g>
</svg>
