<?xml version="1.0" encoding="utf-8"?>
<!-- Generator: Adobe Illustrator 23.0.1, SVG Export Plug-In . SVG Version: 6.00 Build 0)  -->
<svg version="1.1" xmlns="http://www.w3.org/2000/svg" xmlns:xlink="http://www.w3.org/1999/xlink" x="0px" y="0px"
	 viewBox="0 0 1080 1080" style="enable-background:new 0 0 1080 1080;" xml:space="preserve">
<style type="text/css">
	.st0{fill:#FFFFFF;}
	.st1{fill:#00990B;}
	.st2{display:none;}
	.st3{display:inline;fill:#424242;}
	.st4{display:inline;fill:#FFFFFF;}
	.st5{display:inline;}
</style>
<g id="Calque_2">
	<g>
		<path class="st0" d="M1080.1,540c0,298.3-241.8,540.1-540.1,540.1C241.7,1080.1-0.1,838.3-0.1,540
			c0-291.9,231.5-529.7,520.9-539.8c6.4-0.2,12.8-0.3,19.2-0.3c6.4,0,12.7,0.1,19,0.3C848.5,10.2,1080.1,248.1,1080.1,540z"/>
		<g id="Calque_4_1_">
			<polygon class="st1" points="559,514.7 520.8,514.7 540,39.2 			"/>
		</g>
	</g>
</g>
<g id="Calque_3" class="st2">
	<path class="st3" d="M540,0C241.8,0,0,241.8,0,540s241.8,540,540,540s540-241.8,540-540S838.3,0,540,0z M540,595.4
		c-148.7,0-269.2-120.5-269.2-269.2c0-145.5,115.4-264,259.6-269c1.1,0,2.2-0.1,3.4-0.1c2.1,0,4.1-0.1,6.2-0.1s4.1,0,6.2,0.1
		c1.1,0,2.2,0.1,3.3,0.1c144.3,5,259.7,123.5,259.7,269C809.2,474.9,688.7,595.4,540,595.4z"/>
	<rect x="318.5" y="746.3" class="st4" width="443" height="135.7"/>
	<path class="st5" d="M558.3,326.2c0,10.1-8.2,18.2-18.2,18.2s-18.2-8.2-18.2-18.2c0-7.9,5-14.6,12-17.1v-27.8h12.4v27.8
		C553.3,311.6,558.3,318.3,558.3,326.2z"/>
	<rect x="533.8" y="160.3" class="st5" width="12.4" height="30.3"/>
	<rect x="533.8" y="99.7" class="st5" width="12.4" height="30.3"/>
	<path class="st5" d="M546.2,57.1v12.4h-12.4V57.1c2.1,0,4.1-0.1,6.2-0.1S544.2,57,546.2,57.1z"/>
	<rect x="533.8" y="220.8" class="st5" width="12.4" height="30.3"/>
</g>
</svg>
